<svg width="115" height="127" version="1.1" xmlns="http://www.w3.org/2000/svg"><path fill="rgb(144,188,157)" stroke="rgb(144,188,157)" stroke-width="1" opacity="1" d="M 27.5 14 L 67.5 14 L 70 16.5 Q 69.8 19.7 72.5 20 Q 73.8 19.8 74 20.5 L 74 21.5 L 78.5 26 Q 79.8 25.8 80 26.5 Q 79.8 27.8 80.5 28 Q 82.8 27.8 83 29.5 L 83 30.5 L 88.5 36 Q 89.8 35.8 90 36.5 L 90 37.5 L 96 43.5 L 96 101.5 Q 94.9 106.9 90.5 109 Q 88 108.5 87.5 110 L 28.5 110 Q 22.8 108.8 20 104.5 L 20 100.5 Q 18.3 99.8 19 96.5 L 20 95.5 L 20 20.5 Q 21.4 16.9 24.5 15 Q 27 15.5 27.5 14 Z M 64 23 L 63 24 L 63 48 L 64 48 Q 67 49 69 47 Q 70 47 71 48 L 81 48 L 82 47 Q 84 47 85 48 Q 86 48 87 48 L 87 47 L 64 23 Z M 57 57 Q 56 59 54 58 L 53 59 L 53 72 L 53 72 L 40 72 L 39 73 L 39 81 L 40 81 L 53 81 L 53 82 L 53 95 L 54 95 L 62 95 L 62 95 L 62 83 L 61 82 L 62 81 L 76 81 L 77 80 Q 76 79 76 78 Q 78 77 76 76 Q 77 75 77 73 L 77 72 L 64 72 L 62 71 L 62 59 Q 61 56 57 57 Z "></path><path fill="rgb(0,0,0)" stroke="rgb(0,0,0)" stroke-width="1" opacity="0" d="M 0.5 0 L 114.5 0 L 115 0.5 L 115 126.5 L 114.5 127 L 0.5 127 L 0 126.5 L 0 0.5 L 0.5 0 Z M 28 14 Q 27 16 25 15 Q 21 17 20 21 L 20 96 L 19 97 Q 18 100 20 101 L 20 105 Q 23 109 29 110 L 88 110 Q 88 109 91 109 Q 95 107 96 102 L 96 44 L 90 38 L 90 37 Q 90 36 89 36 L 83 31 L 83 30 Q 83 28 81 28 Q 80 28 80 27 Q 80 26 79 26 L 74 22 L 74 21 Q 74 20 73 20 Q 70 20 70 17 L 68 14 L 28 14 Z "></path><path fill="rgb(0,0,0)" stroke="rgb(0,0,0)" stroke-width="1" opacity="0" d="M 63.5 23 L 87 46.5 L 87 47.5 Q 86.5 48.5 84.5 48 Q 84 46.5 81.5 47 L 80.5 48 L 70.5 48 Q 70.3 46.8 68.5 47 Q 67.5 49 63.5 48 L 63 47.5 L 63 23.5 L 63.5 23 Z "></path><path fill="rgb(0,0,0)" stroke="rgb(0,0,0)" stroke-width="1" opacity="0" d="M 56.5 57 Q 61 56 62 58.5 L 62 70.5 L 63.5 72 L 76.5 72 L 77 72.5 Q 77.2 74.7 76 75.5 Q 78 76.5 76 77.5 Q 75.7 79.2 77 79.5 L 75.5 81 L 61.5 81 L 61 81.5 L 62 82.5 L 62 94.5 L 61.5 95 L 53.5 95 L 53 94.5 L 53 81.5 L 52.5 81 L 39.5 81 L 39 80.5 L 39 72.5 L 39.5 72 L 52.5 72 L 53 71.5 L 53 58.5 L 53.5 58 Q 56 58.5 56.5 57 Z "></path></svg>