<?xml version="1.0" encoding="UTF-8" standalone="no"?>
<svg
   xmlns:dc="http://purl.org/dc/elements/1.1/"
   xmlns:cc="http://creativecommons.org/ns#"
   xmlns:rdf="http://www.w3.org/1999/02/22-rdf-syntax-ns#"
   xmlns:svg="http://www.w3.org/2000/svg"
   xmlns="http://www.w3.org/2000/svg"
   xmlns:sodipodi="http://sodipodi.sourceforge.net/DTD/sodipodi-0.dtd"
   xmlns:inkscape="http://www.inkscape.org/namespaces/inkscape"
   width="80"
   height="79"
   version="1.1"
   id="svg262"
   sodipodi:docname="profile_default_img_new.svg"
   inkscape:version="1.0.2 (e86c8708, 2021-01-15)">
  <metadata
     id="metadata268">
    <rdf:RDF>
      <cc:Work
         rdf:about="">
        <dc:format>image/svg+xml</dc:format>
        <dc:type
           rdf:resource="http://purl.org/dc/dcmitype/StillImage" />
        <dc:title></dc:title>
      </cc:Work>
    </rdf:RDF>
  </metadata>
  <defs
     id="defs266" />
  <sodipodi:namedview
     pagecolor="#ffffff"
     bordercolor="#666666"
     borderopacity="1"
     objecttolerance="10"
     gridtolerance="10"
     guidetolerance="10"
     inkscape:pageopacity="0"
     inkscape:pageshadow="2"
     inkscape:window-width="1280"
     inkscape:window-height="800"
     id="namedview264"
     showgrid="false"
     inkscape:zoom="6.0531915"
     inkscape:cx="53.817223"
     inkscape:cy="48.321617"
     inkscape:window-x="0"
     inkscape:window-y="0"
     inkscape:window-maximized="0"
     inkscape:current-layer="svg262" />
  <path
     fill="#000000"
     stroke="#000000"
     stroke-width="1"
     opacity="0"
     d="M 0,0 H 104 V 94 H 0 Z m 42,11 -8,3 -10,7 -7,9 -5,13 v 14 l 1,4 4,9 6,8 11,7 8,3 H 60 L 74,82 84,72 90,57 V 43 L 89,39 87,33 80,23 71,15 61,11 Z"
     id="path254" />
  <path
     fill="#000000"
     stroke="#000000"
     stroke-width="1"
     opacity="0"
     d="m 49.5,17 6,1 3.5,2 2,4.5 v 5 l -4.5,6.5 -9,1 -4.5,-3.5 -2,-4 v -5 L 46.5,18 Z"
     id="path256" />
  <path
     fill="#000000"
     stroke="#000000"
     stroke-width="1"
     opacity="0"
     d="m 40.5,40 h 21 l 4.5,4.5 15,18 v 3 L 78.5,68 h -2 L 65,54 63,54.5 v 24 l -5.5,2.5 -1,-1 h -16 L 39,78.5 38.5,54 26.5,68 h -3 l -2.5,-2.5 1,-4 z"
     id="path258" />
  <path
     class="default_profile"
     fill="#efbf48"
     stroke="#efbf48"
     stroke-width="1"
     opacity="1"
     d="m 30.596661,1.2530756 h 19 l 10,4 9.5,7.5000004 7,10 2,6 1,4 v 14 l -6,15 -10.5,10.5 -14,6 h -18 l -8,-3 -10.5,-7 -6.0000002,-8.5 -4,-9 -1,-4 v -14 l 5,-13 6.5000002,-8.5 10,-7.0000004 z m 8.5,6 -3,1 -6,7.0000004 v 5 l 2,4 5,3 9,-1 4,-6 v -5 l -2,-5 -3,-2.0000004 z m -9,23.0000004 -19,22 -1,4 3,2 h 3 l 12,-14 v 25 l 2,1 h 16 l 1,1 5,-2 v -24 l 2,-1 12,14 h 2 l 2,-2 v -3 l -15,-18 -4,-5 z"
     id="path260" />
</svg>
