<svg width="104" height="94" version="1.1" xmlns="http://www.w3.org/2000/svg"><path fill="rgb(0,0,0)" stroke="rgb(0,0,0)" stroke-width="1" opacity="0" d="M 0 0 L 104 0 L 104 94 L 0 94 L 0 0 Z M 42 11 L 34 14 L 24 21 L 17 30 L 12 43 L 12 57 L 13 61 L 17 70 L 23 78 L 34 85 L 42 88 L 60 88 L 74 82 L 84 72 L 90 57 L 90 43 L 89 39 L 87 33 L 80 23 L 71 15 L 61 11 L 42 11 Z "></path><path fill="rgb(0,0,0)" stroke="rgb(0,0,0)" stroke-width="1" opacity="0" d="M 49.5 17 L 55.5 18 L 59 20 L 61 24.5 L 61 29.5 L 56.5 36 L 47.5 37 L 43 33.5 L 41 29.5 L 41 24.5 L 46.5 18 L 49.5 17 Z "></path><path fill="rgb(0,0,0)" stroke="rgb(0,0,0)" stroke-width="1" opacity="0" d="M 40.5 40 L 61.5 40 L 66 44.5 L 81 62.5 L 81 65.5 L 78.5 68 L 76.5 68 L 65 54 L 63 54.5 L 63 78.5 L 57.5 81 L 56.5 80 L 40.5 80 L 39 78.5 L 38.5 54 L 26.5 68 L 23.5 68 L 21 65.5 L 22 61.5 L 40.5 40 Z "></path><path class="default_profile" fill="rgb(190,148,23)" stroke="rgb(190,148,23)" stroke-width="1" opacity="1" d="M 41.5 11 L 60.5 11 L 70.5 15 L 80 22.5 L 87 32.5 L 89 38.5 L 90 42.5 L 90 56.5 L 84 71.5 L 73.5 82 L 59.5 88 L 41.5 88 L 33.5 85 L 23 78 L 17 69.5 L 13 60.5 L 12 56.5 L 12 42.5 L 17 29.5 L 23.5 21 L 33.5 14 L 41.5 11 Z M 50 17 L 47 18 L 41 25 L 41 30 L 43 34 L 48 37 L 57 36 L 61 30 L 61 25 L 59 20 L 56 18 L 50 17 Z M 41 40 L 22 62 L 21 66 L 24 68 L 27 68 L 39 54 L 39 79 L 41 80 L 57 80 L 58 81 L 63 79 L 63 55 L 65 54 L 77 68 L 79 68 L 81 66 L 81 63 L 66 45 L 62 40 L 41 40 Z "></path></svg>