<svg width="107" height="650" version="1.1" xmlns="http://www.w3.org/2000/svg"><path fill="rgb(0,0,0)" stroke="rgb(0,0,0)" stroke-width="1" opacity="0" d="M 0 0 L 106.5 0 L 107 0.5 L 107 650 L 0.5 650 L 0 649.5 L 0 0 Z M 34 50 L 34 55 L 47 72 L 47 87 L 48 88 Q 49 91 46 90 L 37 79 L 34 75 L 31 75 L 31 79 L 33 82 L 47 96 Q 46 99 48 101 L 48 116 L 45 116 L 34 107 L 30 106 L 28 109 Q 35 116 46 120 L 48 123 L 49 256 L 50 257 L 50 299 L 51 300 L 51 376 L 50 377 L 50 448 L 49 449 L 49 504 L 48 505 L 48 551 L 46 551 L 34 559 Q 31 558 32 561 L 30 561 L 29 564 L 31 566 L 46 555 Q 48 555 48 556 L 48 576 L 44 579 L 33 591 L 31 594 L 31 596 L 34 596 Q 34 593 37 594 L 38 591 L 46 582 Q 48 582 48 583 L 48 591 Q 46 592 48 593 L 47 596 L 47 601 L 38 612 L 34 619 Q 33 622 37 621 L 48 606 Q 47 603 51 604 L 57 615 L 61 619 L 61 620 L 64 620 L 64 617 L 62 613 L 52 600 L 52 584 Q 52 583 55 583 L 66 597 L 68 596 L 66 591 L 54 578 L 52 574 L 52 563 L 53 562 L 52 559 Q 52 557 56 557 L 58 561 L 67 568 Q 70 569 70 567 L 68 564 L 53 550 L 53 513 L 54 512 L 54 450 L 55 449 L 55 267 L 54 266 L 54 209 L 53 208 L 53 144 L 52 143 L 52 123 L 64 112 L 68 107 Q 69 102 65 104 L 57 113 Q 56 116 52 115 L 52 96 L 67 79 Q 69 74 65 75 L 60 80 L 55 88 Q 54 90 51 89 L 51 73 L 56 67 Q 55 64 58 65 L 59 62 L 64 55 Q 65 50 61 52 L 51 66 L 51 67 L 47 67 L 47 66 L 40 55 L 36 50 L 34 50 Z "></path><path fill="rgb(204,238,215)" stroke="rgb(204,238,215)" stroke-width="1" opacity="1" d="M 34 50 L 35.5 50 L 40 54.5 L 47 65.5 L 47 67 L 51 67 L 51 65.5 L 60.5 52 Q 65.31 50.33 64 54.5 L 59 61.5 L 58 65 Q 55.33 63.87 56 66.5 L 51 72.5 L 51 89 Q 54 89.75 55 87.5 L 60 79.5 L 64.5 75 Q 68.67 73.69 67 78.5 L 52 95.5 L 52 115 Q 55.83 115.75 57 112.5 L 64.5 104 Q 69.31 102.33 68 106.5 L 63.5 112 L 52 122.5 L 52 142.5 L 53 143.5 L 53 207.5 L 54 208.5 L 54 265.5 L 55 266.5 L 55 448.5 L 54 449.5 L 54 511.5 L 53 512.5 L 53 549.5 L 68 563.5 L 70 566.5 Q 69.5 568.5 66.5 568 L 58 560.5 L 55.5 557 Q 52.5 556.5 52 558.5 L 53 561.5 L 52 562.5 L 52 573.5 L 54 577.5 L 66 590.5 L 68 595.5 L 65.5 597 L 54.5 583 Q 51.75 582.75 52 583.5 L 52 599.5 L 62 612.5 L 64 616.5 L 64 620 L 61 620 L 61 618.5 L 57 614.5 L 50.5 604 Q 47.17 602.88 48 605.5 L 36.5 621 Q 32.75 622.25 34 618.5 L 38 611.5 L 47 600.5 L 47 595.5 L 48 592.5 Q 46 591.5 48 590.5 L 48 582.5 Q 48.25 581.75 45.5 582 L 38 590.5 L 37 594 Q 34.5 593.5 33.5 596 L 31 596 L 31 593.5 L 33 590.5 L 43.5 579 L 48 575.5 L 48 555.5 Q 48.25 554.75 45.5 555 L 30.5 566 L 29 563.5 L 30 561 L 32 561 Q 30.88 558.33 33.5 559 L 45.5 551 L 48 551 L 48 504.5 L 49 503.5 L 49 448.5 L 50 447.5 L 50 376.5 L 51 375.5 L 51 299.5 L 50 298.5 L 50 256.5 L 49 255.5 L 48 122.5 L 45.5 120 Q 35.19 115.81 28 108.5 L 29.5 106 L 33.5 107 L 44.5 116 L 48 116 L 48 100.5 Q 46 99.5 47 95.5 L 33 81.5 L 31 78.5 L 31 75 L 33.5 75 L 37 78.5 L 45.5 90 Q 49.25 91.25 48 87.5 L 47 86.5 L 47 71.5 L 34 54.5 L 34 50 Z "></path></svg>